# xmcd CD database file
#
# Track frame offsets:
#	150
#	38577
#	72835
#	97217
#	124966
#	150398
#	181673
#	214564
#	242987
#	272850
#
# Disc length: 4095 seconds
#
# Revision: 0
# Processed by: cddbd v1.5.2PL0 Copyright (c) Steve Scherf et al.
# Submitted via: CDex 1.70beta2
#
DISCID=880ffd0a
DTITLE=Rhoda Scott - Very Saxy - Live au Méridien - Disc 2
DYEAR=2005
DGENRE=Jazz
TTITLE0=In A Mellow Tone
TTITLE1=Nova
TTITLE2=Shiny Stockings
TTITLE3=My One And Only Love
TTITLE4=Just The Way You Are
TTITLE5=Yona
TTITLE6=C Jam Blues
TTITLE7=Only Trust Your Heart
TTITLE8=Sugar
TTITLE9=Sweet Sucker
EXTD=YEAR: 2005
EXTT0=
EXTT1=
EXTT2=
EXTT3=
EXTT4=
EXTT5=
EXTT6=
EXTT7=
EXTT8=
EXTT9=
PLAYORDER=
